<svg width="78" height="79" viewBox="0 0 78 79" fill="none" xmlns="http://www.w3.org/2000/svg">
<path d="M48.3047 31.233C48.3947 31.293 48.4947 31.343 48.5947 31.383C48.6947 31.433 48.8047 31.463 48.9147 31.483C49.0147 31.503 49.1348 31.513 49.2448 31.513C49.6848 31.513 50.1248 31.333 50.4348 31.023C50.7548 30.713 50.9348 30.273 50.9348 29.823C50.9348 29.383 50.7548 28.943 50.4348 28.633C50.0448 28.233 49.4647 28.053 48.9147 28.163C48.8047 28.183 48.6947 28.223 48.5947 28.263C48.4947 28.303 48.3947 28.353 48.3047 28.423C48.2047 28.483 48.1247 28.553 48.0447 28.633C47.7247 28.943 47.5447 29.383 47.5447 29.823C47.5447 30.273 47.7247 30.713 48.0447 31.023C48.1247 31.103 48.2047 31.173 48.3047 31.233ZM57.9247 30.473C57.9647 30.573 58.0147 30.673 58.0747 30.763C58.1347 30.863 58.2047 30.943 58.2847 31.023C58.6047 31.333 59.0447 31.513 59.4847 31.513C59.5947 31.513 59.7047 31.503 59.8147 31.483C59.9247 31.463 60.0347 31.433 60.1347 31.383C60.2347 31.343 60.3347 31.293 60.4247 31.233C60.5147 31.173 60.6048 31.103 60.6848 31.023C60.7648 30.943 60.8347 30.863 60.8947 30.763C60.9547 30.673 61.0047 30.573 61.0447 30.473C61.0847 30.373 61.1247 30.263 61.1447 30.153C61.1647 30.043 61.1747 29.933 61.1747 29.823C61.1747 29.713 61.1647 29.603 61.1447 29.493C61.1247 29.383 61.0847 29.283 61.0447 29.183C61.0047 29.073 60.9547 28.973 60.8947 28.883C60.8347 28.793 60.7648 28.703 60.6848 28.633C60.6048 28.553 60.5147 28.483 60.4247 28.423C60.3347 28.363 60.2347 28.303 60.1347 28.263C60.0347 28.223 59.9247 28.193 59.8147 28.163C59.2647 28.053 58.6847 28.233 58.2847 28.633C58.2047 28.703 58.1347 28.793 58.0747 28.883C58.0147 28.973 57.9647 29.073 57.9247 29.183C57.8847 29.283 57.8447 29.383 57.8247 29.493C57.8047 29.603 57.7947 29.713 57.7947 29.823C57.7947 29.933 57.8047 30.043 57.8247 30.153C57.8447 30.263 57.8847 30.373 57.9247 30.473ZM58.2847 51.463C58.6047 51.773 59.0347 51.953 59.4847 51.953C59.5947 51.953 59.7047 51.943 59.8147 51.923C59.9247 51.903 60.0347 51.873 60.1347 51.823C60.2347 51.783 60.3347 51.733 60.4247 51.673C60.5147 51.613 60.6048 51.533 60.6848 51.463C60.9948 51.143 61.1747 50.703 61.1747 50.263C61.1747 50.153 61.1647 50.043 61.1447 49.933C61.1247 49.823 61.0847 49.713 61.0447 49.613C61.0047 49.513 60.9547 49.413 60.8947 49.323C60.8347 49.233 60.7648 49.143 60.6848 49.063C60.6048 48.983 60.5147 48.913 60.4247 48.853C60.3347 48.793 60.2347 48.743 60.1347 48.703C60.0347 48.653 59.9247 48.623 59.8147 48.603C59.2747 48.493 58.6847 48.673 58.2847 49.063C58.2047 49.143 58.1347 49.233 58.0747 49.323C58.0147 49.413 57.9647 49.513 57.9247 49.613C57.8847 49.713 57.8447 49.823 57.8247 49.933C57.8047 50.043 57.7947 50.153 57.7947 50.263C57.7947 50.703 57.9747 51.143 58.2847 51.463ZM58.2847 41.173C58.6047 41.483 59.0347 41.663 59.4847 41.663C59.5947 41.663 59.7047 41.653 59.8147 41.633C59.9247 41.613 60.0347 41.583 60.1347 41.533C60.2347 41.493 60.3347 41.443 60.4247 41.383C60.5147 41.313 60.6048 41.243 60.6848 41.173C60.9948 40.853 61.1747 40.413 61.1747 39.973C61.1747 39.863 61.1647 39.753 61.1447 39.643C61.1247 39.533 61.0847 39.423 61.0447 39.323C61.0047 39.223 60.9547 39.123 60.8947 39.033C60.8347 38.943 60.7648 38.853 60.6848 38.773C60.6048 38.693 60.5147 38.623 60.4247 38.563C60.3347 38.503 60.2347 38.453 60.1347 38.413C60.0347 38.363 59.9247 38.333 59.8147 38.313C59.2747 38.203 58.6847 38.383 58.2847 38.773C58.2047 38.853 58.1347 38.943 58.0747 39.033C58.0147 39.123 57.9647 39.223 57.9247 39.323C57.8847 39.423 57.8447 39.533 57.8247 39.643C57.8047 39.753 57.7947 39.863 57.7947 39.973C57.7947 40.413 57.9747 40.853 58.2847 41.173ZM48.0447 41.173C48.1247 41.243 48.2047 41.323 48.3047 41.383C48.3947 41.443 48.4947 41.493 48.5947 41.533C48.6947 41.583 48.8047 41.613 48.9147 41.633C49.0147 41.653 49.1348 41.663 49.2448 41.663C49.6848 41.663 50.1248 41.483 50.4348 41.173C50.7548 40.853 50.9348 40.423 50.9348 39.973C50.9348 39.863 50.9247 39.753 50.9047 39.643C50.8747 39.533 50.8447 39.423 50.8047 39.323C50.7647 39.223 50.7147 39.123 50.6447 39.033C50.5847 38.943 50.5148 38.853 50.4348 38.773C50.0448 38.383 49.4647 38.203 48.9147 38.313C48.8047 38.333 48.6947 38.363 48.5947 38.413C48.4947 38.453 48.3947 38.503 48.3047 38.563C48.2047 38.623 48.1247 38.703 48.0447 38.773C47.9647 38.853 47.8947 38.943 47.8347 39.033C47.7747 39.123 47.7247 39.223 47.6747 39.323C47.6347 39.423 47.6047 39.533 47.5847 39.643C47.5647 39.753 47.5447 39.863 47.5447 39.973C47.5447 40.423 47.7247 40.853 48.0447 41.173ZM38.9948 31.513C39.1048 31.513 39.2247 31.503 39.3247 31.483C39.4347 31.463 39.5447 31.433 39.6447 31.383C39.7447 31.343 39.8448 31.293 39.9348 31.233C40.0348 31.173 40.1147 31.103 40.1947 31.023C40.2747 30.943 40.3447 30.853 40.4047 30.763C40.4647 30.673 40.5147 30.573 40.5547 30.473C40.6047 30.373 40.6347 30.263 40.6547 30.153C40.6747 30.043 40.6848 29.933 40.6848 29.823C40.6848 29.383 40.5047 28.943 40.1947 28.633C40.1147 28.553 40.0348 28.483 39.9348 28.423C39.8448 28.353 39.7447 28.303 39.6447 28.263C39.5447 28.223 39.4347 28.183 39.3247 28.163C38.7747 28.053 38.1947 28.233 37.8047 28.633C37.4847 28.943 37.3047 29.383 37.3047 29.823C37.3047 30.273 37.4847 30.703 37.8047 31.023C38.1147 31.333 38.5548 31.513 38.9948 31.513ZM19.9147 59.563C19.8547 59.463 19.7847 59.383 19.7047 59.303C19.3147 58.913 18.7348 58.733 18.1848 58.843C18.0748 58.863 17.9647 58.893 17.8647 58.933C17.7647 58.983 17.6647 59.033 17.5747 59.093C17.4847 59.153 17.3947 59.223 17.3147 59.303C17.2347 59.383 17.1647 59.463 17.1047 59.563C17.0447 59.653 16.9947 59.753 16.9547 59.853C16.9047 59.953 16.8747 60.063 16.8547 60.173C16.8347 60.283 16.8247 60.393 16.8247 60.503C16.8247 60.943 17.0047 61.383 17.3147 61.693C17.3947 61.773 17.4847 61.843 17.5747 61.903C17.6647 61.963 17.7647 62.023 17.8647 62.063C17.9647 62.103 18.0748 62.133 18.1848 62.153C18.2948 62.183 18.4047 62.193 18.5147 62.193C18.9547 62.193 19.3947 62.013 19.7047 61.693C20.0247 61.383 20.2047 60.943 20.2047 60.503C20.2047 60.393 20.1947 60.283 20.1747 60.173C20.1447 60.063 20.1147 59.953 20.0747 59.853C20.0347 59.753 19.9847 59.653 19.9147 59.563ZM27.8147 41.383C27.9047 41.443 28.0047 41.493 28.1047 41.533C28.2147 41.573 28.3147 41.613 28.4247 41.633C28.5347 41.653 28.6447 41.663 28.7547 41.663C29.2047 41.663 29.6347 41.483 29.9547 41.173C30.2647 40.853 30.4447 40.413 30.4447 39.973C30.4447 39.533 30.2647 39.093 29.9547 38.773C29.5547 38.383 28.9747 38.203 28.4247 38.313C28.3147 38.333 28.2147 38.363 28.1047 38.413C28.0047 38.453 27.9047 38.503 27.8147 38.563C27.7247 38.623 27.6347 38.693 27.5547 38.773C27.2447 39.093 27.0647 39.523 27.0647 39.973C27.0647 40.423 27.2447 40.853 27.5547 41.173C27.6347 41.243 27.7247 41.313 27.8147 41.383ZM20.1747 49.933C20.1447 49.823 20.1147 49.723 20.0747 49.613C20.0347 49.513 19.9847 49.413 19.9147 49.323C19.8547 49.233 19.7847 49.143 19.7047 49.063C19.3147 48.673 18.7348 48.493 18.1848 48.603C18.0748 48.623 17.9647 48.663 17.8647 48.703C17.7647 48.743 17.6647 48.793 17.5747 48.853C17.4847 48.913 17.3947 48.983 17.3147 49.063C17.2347 49.143 17.1647 49.233 17.1047 49.323C17.0447 49.413 16.9947 49.513 16.9547 49.613C16.9047 49.723 16.8747 49.823 16.8547 49.933C16.8347 50.043 16.8247 50.153 16.8247 50.263C16.8247 50.713 17.0047 51.143 17.3147 51.463C17.3947 51.533 17.4847 51.613 17.5747 51.673C17.6647 51.733 17.7647 51.783 17.8647 51.823C17.9647 51.873 18.0748 51.903 18.1848 51.923C18.2948 51.943 18.4047 51.953 18.5147 51.953C18.9547 51.953 19.3947 51.773 19.7047 51.463C20.0247 51.143 20.2047 50.713 20.2047 50.263C20.2047 50.153 20.1947 50.043 20.1747 49.933ZM20.1747 39.643C20.1447 39.533 20.1147 39.433 20.0747 39.323C20.0347 39.223 19.9847 39.123 19.9147 39.033C19.8547 38.943 19.7847 38.853 19.7047 38.773C19.3147 38.383 18.7348 38.203 18.1848 38.313C18.0748 38.333 17.9647 38.363 17.8647 38.413C17.7647 38.453 17.6647 38.503 17.5747 38.563C17.4847 38.623 17.3947 38.693 17.3147 38.773C17.2347 38.853 17.1647 38.943 17.1047 39.033C17.0447 39.123 16.9947 39.223 16.9547 39.323C16.9047 39.433 16.8747 39.533 16.8547 39.643C16.8347 39.753 16.8247 39.863 16.8247 39.973C16.8247 40.423 17.0047 40.853 17.3147 41.173C17.3947 41.243 17.4747 41.323 17.5747 41.383C17.6647 41.443 17.7647 41.493 17.8647 41.533C17.9647 41.583 18.0748 41.613 18.1848 41.633C18.2948 41.653 18.4047 41.663 18.5147 41.663C18.9647 41.663 19.3947 41.483 19.7047 41.173C20.0247 40.853 20.2047 40.423 20.2047 39.973C20.2047 39.863 20.1947 39.753 20.1747 39.643ZM27.5547 61.693C27.6347 61.773 27.7247 61.843 27.8147 61.903C27.9047 61.963 28.0047 62.023 28.1047 62.063C28.2147 62.103 28.3147 62.133 28.4247 62.153C28.5347 62.183 28.6447 62.193 28.7547 62.193C29.2047 62.193 29.6347 62.013 29.9547 61.693C30.2647 61.383 30.4447 60.943 30.4447 60.503C30.4447 60.393 30.4347 60.273 30.4147 60.173C30.3947 60.063 30.3647 59.953 30.3147 59.853C30.2747 59.753 30.2247 59.653 30.1647 59.563C30.1047 59.463 30.0347 59.383 29.9547 59.303C29.5547 58.913 28.9747 58.733 28.4247 58.843C28.3147 58.863 28.2147 58.893 28.1047 58.933C28.0047 58.983 27.9047 59.033 27.8147 59.093C27.7247 59.153 27.6347 59.223 27.5547 59.303C27.2447 59.613 27.0647 60.053 27.0647 60.503C27.0647 60.943 27.2447 61.383 27.5547 61.693ZM37.8047 61.693C38.1147 62.013 38.5548 62.193 38.9948 62.193C39.1048 62.193 39.2247 62.183 39.3247 62.163C39.4347 62.133 39.5447 62.103 39.6447 62.063C39.7447 62.023 39.8448 61.963 39.9348 61.903C40.0348 61.843 40.1147 61.773 40.1947 61.693C40.5047 61.383 40.6848 60.943 40.6848 60.503C40.6848 60.393 40.6747 60.273 40.6547 60.173C40.6347 60.063 40.6047 59.953 40.5547 59.853C40.5147 59.753 40.4647 59.653 40.4047 59.563C40.3447 59.463 40.2747 59.383 40.1947 59.303C40.1147 59.223 40.0348 59.153 39.9348 59.093C39.8448 59.033 39.7447 58.983 39.6447 58.933C39.5447 58.893 39.4347 58.863 39.3247 58.843C38.7747 58.733 38.1947 58.913 37.8047 59.303C37.4847 59.623 37.3047 60.053 37.3047 60.503C37.3047 60.943 37.4847 61.383 37.8047 61.693ZM37.8047 51.463C38.1147 51.773 38.5548 51.953 38.9948 51.953C39.1048 51.953 39.2247 51.943 39.3247 51.923C39.4347 51.903 39.5447 51.873 39.6447 51.823C39.7447 51.783 39.8448 51.733 39.9348 51.673C40.0348 51.613 40.1147 51.543 40.1947 51.463C40.5047 51.143 40.6848 50.703 40.6848 50.263C40.6848 50.153 40.6747 50.043 40.6547 49.933C40.6347 49.823 40.6047 49.713 40.5547 49.613C40.5147 49.513 40.4647 49.413 40.4047 49.323C40.3447 49.233 40.2747 49.143 40.1947 49.063C40.1147 48.993 40.0348 48.913 39.9348 48.853C39.8448 48.793 39.7447 48.743 39.6447 48.703C39.5447 48.653 39.4347 48.623 39.3247 48.603C38.7747 48.493 38.1947 48.673 37.8047 49.063C37.7247 49.143 37.6547 49.233 37.5947 49.323C37.5247 49.413 37.4748 49.513 37.4348 49.613C37.3948 49.713 37.3547 49.823 37.3347 49.933C37.3147 50.043 37.3047 50.153 37.3047 50.263C37.3047 50.713 37.4847 51.143 37.8047 51.463ZM48.0447 61.693C48.1247 61.773 48.2047 61.843 48.3047 61.903C48.3947 61.963 48.4947 62.023 48.5947 62.063C48.6947 62.103 48.8047 62.133 48.9147 62.163C49.0147 62.183 49.1348 62.193 49.2448 62.193C49.6848 62.193 50.1248 62.013 50.4348 61.693C50.7548 61.383 50.9348 60.943 50.9348 60.503C50.9348 60.393 50.9247 60.273 50.9047 60.173C50.8747 60.063 50.8447 59.953 50.8047 59.853C50.7647 59.753 50.7147 59.653 50.6447 59.563C50.5847 59.463 50.5148 59.383 50.4348 59.303C50.0448 58.913 49.4647 58.733 48.9147 58.843C48.8047 58.863 48.6947 58.893 48.5947 58.933C48.4947 58.983 48.3947 59.033 48.3047 59.093C48.2047 59.153 48.1247 59.223 48.0447 59.303C47.9647 59.383 47.8947 59.463 47.8347 59.563C47.7747 59.653 47.7247 59.753 47.6747 59.853C47.6347 59.953 47.6047 60.063 47.5847 60.173C47.5647 60.273 47.5447 60.393 47.5447 60.503C47.5447 60.943 47.7247 61.383 48.0447 61.693ZM27.5547 51.463C27.6347 51.533 27.7247 51.613 27.8147 51.673C27.9047 51.733 28.0047 51.783 28.1047 51.823C28.2147 51.863 28.3147 51.903 28.4247 51.923C28.5347 51.943 28.6447 51.953 28.7547 51.953C29.2047 51.953 29.6347 51.773 29.9547 51.463C30.2647 51.143 30.4447 50.703 30.4447 50.263C30.4447 50.153 30.4347 50.043 30.4147 49.933C30.3947 49.823 30.3647 49.713 30.3147 49.613C30.2747 49.513 30.2247 49.413 30.1647 49.323C30.1047 49.233 30.0347 49.143 29.9547 49.063C29.5547 48.673 28.9747 48.493 28.4247 48.603C28.3147 48.623 28.2147 48.663 28.1047 48.703C28.0047 48.743 27.9047 48.793 27.8147 48.853C27.7247 48.913 27.6347 48.993 27.5547 49.063C27.2447 49.383 27.0647 49.813 27.0647 50.263C27.0647 50.713 27.2447 51.143 27.5547 51.463Z" fill="#444444"/>
<path d="M38.2298 41.533C38.1298 41.493 38.0298 41.443 37.9398 41.383C37.8498 41.313 37.7598 41.243 37.6798 41.173C37.3698 40.853 37.1898 40.423 37.1898 39.973C37.1898 39.523 37.3698 39.093 37.6798 38.773C37.7598 38.693 37.8498 38.623 37.9398 38.563C38.0298 38.503 38.1298 38.453 38.2298 38.413C38.3398 38.363 38.4398 38.333 38.5498 38.313C39.0998 38.203 39.6798 38.383 40.0798 38.773C40.3898 39.093 40.5698 39.533 40.5698 39.973C40.5698 40.413 40.3898 40.853 40.0798 41.173C39.7598 41.483 39.3298 41.663 38.8798 41.663C38.7698 41.663 38.6598 41.653 38.5498 41.633C38.4398 41.613 38.3398 41.573 38.2298 41.533Z" fill="#444444"/>
<path d="M48.5711 51.823C48.4711 51.783 48.3711 51.733 48.2811 51.673C48.1911 51.603 48.1012 51.533 48.0212 51.463C47.7112 51.143 47.5311 50.713 47.5311 50.263C47.5311 49.813 47.7112 49.383 48.0212 49.063C48.1012 48.983 48.1911 48.913 48.2811 48.853C48.3711 48.793 48.4711 48.743 48.5711 48.703C48.6811 48.653 48.7812 48.623 48.8912 48.603C49.4412 48.493 50.0211 48.673 50.4211 49.063C50.7311 49.383 50.9111 49.823 50.9111 50.263C50.9111 50.703 50.7311 51.143 50.4211 51.463C50.1011 51.773 49.6711 51.953 49.2211 51.953C49.1111 51.953 49.0012 51.943 48.8912 51.923C48.7812 51.903 48.6811 51.863 48.5711 51.823Z" fill="#444444"/>
<path d="M58.8418 61.9851C58.7418 61.9451 58.6418 61.8951 58.5518 61.8351C58.4618 61.7651 58.3718 61.6951 58.2918 61.6251C57.9818 61.3051 57.8018 60.8751 57.8018 60.4251C57.8018 59.9751 57.9818 59.5451 58.2918 59.2251C58.3718 59.1451 58.4618 59.0751 58.5518 59.0151C58.6418 58.9551 58.7418 58.9051 58.8418 58.8651C58.9518 58.8151 59.0518 58.7851 59.1618 58.7651C59.7118 58.6551 60.2918 58.8351 60.6918 59.2251C61.0018 59.5451 61.1818 59.9851 61.1818 60.4251C61.1818 60.8651 61.0018 61.3051 60.6918 61.6251C60.3718 61.9351 59.9418 62.1151 59.4918 62.1151C59.3818 62.1151 59.2718 62.1051 59.1618 62.0851C59.0518 62.0651 58.9518 62.0251 58.8418 61.9851Z" fill="#444444"/>
<rect x="7.9248" y="8.56299" width="62.1499" height="62.8199" stroke="#444444" stroke-width="3.5"/>
<line x1="6.1748" y1="20.2306" x2="71.8247" y2="20.2306" stroke="#444444" stroke-width="3.5"/>
<path d="M44.6262 46.4343C44.6262 46.4343 40.4456 44.9416 36.5314 45.5271C30.5683 46.4192 31.8832 54.3706 38.1894 55.8509C42.6376 56.895 46.2783 56.2432 47.63 54.096C49.2843 51.4682 47.63 49.5187 47.63 49.5187" stroke="#F4C65D" stroke-width="3.7" stroke-linecap="round"/>
<path d="M31.49 40.9882C30.8253 41.6529 29.7505 41.6529 29.0859 40.9882L21.7968 33.6991C21.1321 33.0344 21.1321 31.9596 21.7967 31.2949C22.4614 30.6303 23.5362 30.6303 24.2009 31.2949L31.49 38.5841C32.1618 39.2417 32.1547 40.3235 31.49 40.9882Z" fill="#F4C65D"/>
<path d="M32.579 42.0772L24.7796 42.0559C23.8392 42.0489 23.0826 41.2923 23.0896 40.3518C23.0967 39.4114 23.8533 38.6548 24.7938 38.6618L29.1778 38.676L29.1637 34.2919C29.1566 33.3515 29.9203 32.5878 30.8536 32.5878C31.7941 32.5807 32.5578 33.3444 32.5578 34.2778L32.579 42.0772Z" fill="#F4C65D"/>
</svg>
